<svg width="1440" height="27" viewBox="0 0 1440 27" fill="none" xmlns="http://www.w3.org/2000/svg">
<path d="M779.63 11.6125C775.713 11.6125 774.187 16.7007 777.457 18.8557L780.531 20.881C781.455 21.49 781.451 22.8469 780.524 23.4508C780.012 23.7843 779.351 23.7826 778.84 23.4463L762.135 12.4375C761.318 11.8993 760.362 11.6125 759.384 11.6125H723.306C722.585 11.6125 722 11.0277 722 10.3062C722 9.58482 722.585 9 723.306 9H1438.69C1439.42 9 1440 9.58482 1440 10.3062C1440 11.0277 1439.42 11.6125 1438.69 11.6125H779.63Z" fill="#FDB207"/>
<path d="M779.63 11.6125C775.713 11.6125 774.187 16.7007 777.457 18.8557L780.531 20.881C781.455 21.49 781.451 22.8469 780.524 23.4508C780.012 23.7843 779.351 23.7826 778.84 23.4463L762.135 12.4375C761.318 11.8993 760.362 11.6125 759.384 11.6125H723.306C722.585 11.6125 722 11.0277 722 10.3062C722 9.58482 722.585 9 723.306 9H1438.69C1439.42 9 1440 9.58482 1440 10.3062C1440 11.0277 1439.42 11.6125 1438.69 11.6125H779.63Z" fill="url(#paint0_linear)"/>
<path d="M655.279 23.4028C654.763 23.7621 654.078 23.7637 653.561 23.4068C652.693 22.8089 652.689 21.5285 653.554 20.9258L656.491 18.8778C659.695 16.6437 658.114 11.6125 654.208 11.6125H1.30622C0.584799 11.6125 0 11.0277 0 10.3062C0 9.58482 0.584824 9 1.30624 9H705.694C706.415 9 707 9.58482 707 10.3062C707 11.0277 706.415 11.6125 705.694 11.6125H673.787C672.766 11.6125 671.769 11.9253 670.931 12.5087L655.279 23.4028Z" fill="#FDB207"/>
<path d="M655.279 23.4028C654.763 23.7621 654.078 23.7637 653.561 23.4068C652.693 22.8089 652.689 21.5285 653.554 20.9258L656.491 18.8778C659.695 16.6437 658.114 11.6125 654.208 11.6125H1.30622C0.584799 11.6125 0 11.0277 0 10.3062C0 9.58482 0.584824 9 1.30624 9H705.694C706.415 9 707 9.58482 707 10.3062C707 11.0277 706.415 11.6125 705.694 11.6125H673.787C672.766 11.6125 671.769 11.9253 670.931 12.5087L655.279 23.4028Z" fill="url(#paint1_linear)"/>
<path d="M718.909 3.57718C716.953 1.6061 713.766 1.60609 711.81 3.57717L695.04 20.4792C694.101 21.4254 692.823 21.9576 691.49 21.9576H189.521C188.129 21.9576 187 23.0863 187 24.4788C187 25.8712 188.129 27 189.521 27H693.581C694.915 27 696.193 26.467 697.132 25.5196L711.81 10.7095C713.766 8.73646 716.954 8.73554 718.911 10.7074L733.61 25.5217C734.549 26.4678 735.826 27 737.159 27H1218.48C1219.87 27 1221 25.8712 1221 24.4788C1221 23.0863 1219.87 21.9576 1218.48 21.9576H739.229C737.896 21.9576 736.618 21.4254 735.679 20.4792L718.909 3.57718Z" fill="#FDB207"/>
<path d="M718.909 3.57718C716.953 1.6061 713.766 1.60609 711.81 3.57717L695.04 20.4792C694.101 21.4254 692.823 21.9576 691.49 21.9576H189.521C188.129 21.9576 187 23.0863 187 24.4788C187 25.8712 188.129 27 189.521 27H693.581C694.915 27 696.193 26.467 697.132 25.5196L711.81 10.7095C713.766 8.73646 716.954 8.73554 718.911 10.7074L733.61 25.5217C734.549 26.4678 735.826 27 737.159 27H1218.48C1219.87 27 1221 25.8712 1221 24.4788C1221 23.0863 1219.87 21.9576 1218.48 21.9576H739.229C737.896 21.9576 736.618 21.4254 735.679 20.4792L718.909 3.57718Z" fill="url(#paint2_linear)"/>
<defs>
<linearGradient id="paint0_linear" x1="722" y1="15.4286" x2="1188.89" y2="143.986" gradientUnits="userSpaceOnUse">
<stop offset="0.015625" stop-color="#B40ACB"/>
<stop offset="1" stop-color="#FFCE21"/>
</linearGradient>
<linearGradient id="paint1_linear" x1="3.52852e-06" y1="15.4286" x2="460.723" y2="140.345" gradientUnits="userSpaceOnUse">
<stop offset="0.015625" stop-color="#B40ACB"/>
<stop offset="1" stop-color="#FFCE21"/>
</linearGradient>
<linearGradient id="paint2_linear" x1="187" y1="11.5714" x2="876.869" y2="163.547" gradientUnits="userSpaceOnUse">
<stop offset="0.015625" stop-color="#B40ACB"/>
<stop offset="1" stop-color="#FFCE21"/>
</linearGradient>
</defs>
</svg>
