<svg width="1440" height="27" viewBox="0 0 1440 27" fill="none" xmlns="http://www.w3.org/2000/svg">
<path d="M779.63 14.3875C775.713 14.3875 774.187 9.29928 777.457 7.14425L780.531 5.11895C781.455 4.50997 781.451 3.15313 780.524 2.54916C780.012 2.21565 779.351 2.21745 778.84 2.55373L762.135 13.5625C761.318 14.1007 760.362 14.3875 759.384 14.3875H723.306C722.585 14.3875 722 14.9723 722 15.6938C722 16.4152 722.585 17 723.306 17H1438.69C1439.42 17 1440 16.4152 1440 15.6938C1440 14.9723 1439.42 14.3875 1438.69 14.3875H779.63Z" fill="#FDB207"/>
<path d="M779.63 14.3875C775.713 14.3875 774.187 9.29928 777.457 7.14425L780.531 5.11895C781.455 4.50997 781.451 3.15313 780.524 2.54916C780.012 2.21565 779.351 2.21745 778.84 2.55373L762.135 13.5625C761.318 14.1007 760.362 14.3875 759.384 14.3875H723.306C722.585 14.3875 722 14.9723 722 15.6938C722 16.4152 722.585 17 723.306 17H1438.69C1439.42 17 1440 16.4152 1440 15.6938C1440 14.9723 1439.42 14.3875 1438.69 14.3875H779.63Z" fill="url(#paint0_linear)"/>
<path d="M655.279 2.59721C654.763 2.23794 654.078 2.23633 653.561 2.59316C652.693 3.19107 652.689 4.47152 653.554 5.07423L656.491 7.12215C659.695 9.35632 658.114 14.3875 654.208 14.3875H1.30622C0.584799 14.3875 0 14.9723 0 15.6938C0 16.4152 0.584824 17 1.30624 17H705.694C706.415 17 707 16.4152 707 15.6938C707 14.9723 706.415 14.3875 705.694 14.3875H673.787C672.766 14.3875 671.769 14.0747 670.931 13.4913L655.279 2.59721Z" fill="#FDB207"/>
<path d="M655.279 2.59721C654.763 2.23794 654.078 2.23633 653.561 2.59316C652.693 3.19107 652.689 4.47152 653.554 5.07423L656.491 7.12215C659.695 9.35632 658.114 14.3875 654.208 14.3875H1.30622C0.584799 14.3875 0 14.9723 0 15.6938C0 16.4152 0.584824 17 1.30624 17H705.694C706.415 17 707 16.4152 707 15.6938C707 14.9723 706.415 14.3875 705.694 14.3875H673.787C672.766 14.3875 671.769 14.0747 670.931 13.4913L655.279 2.59721Z" fill="url(#paint1_linear)"/>
<path d="M718.909 23.4228C716.953 25.3939 713.766 25.3939 711.81 23.4228L695.04 6.52075C694.101 5.57461 692.823 5.04244 691.49 5.04244H189.521C188.129 5.04244 187 3.91366 187 2.52122C187 1.12879 188.129 0 189.521 0H693.581C694.915 0 696.193 0.532959 697.132 1.48036L711.81 16.2905C713.766 18.2635 716.954 18.2645 718.911 16.2926L733.61 1.47831C734.549 0.532162 735.826 0 737.159 0H1218.48C1219.87 0 1221 1.12879 1221 2.52122C1221 3.91366 1219.87 5.04244 1218.48 5.04244H739.229C737.896 5.04244 736.618 5.57461 735.679 6.52075L718.909 23.4228Z" fill="#FDB207"/>
<path d="M718.909 23.4228C716.953 25.3939 713.766 25.3939 711.81 23.4228L695.04 6.52075C694.101 5.57461 692.823 5.04244 691.49 5.04244H189.521C188.129 5.04244 187 3.91366 187 2.52122C187 1.12879 188.129 0 189.521 0H693.581C694.915 0 696.193 0.532959 697.132 1.48036L711.81 16.2905C713.766 18.2635 716.954 18.2645 718.911 16.2926L733.61 1.47831C734.549 0.532162 735.826 0 737.159 0H1218.48C1219.87 0 1221 1.12879 1221 2.52122C1221 3.91366 1219.87 5.04244 1218.48 5.04244H739.229C737.896 5.04244 736.618 5.57461 735.679 6.52075L718.909 23.4228Z" fill="url(#paint2_linear)"/>
<defs>
<linearGradient id="paint0_linear" x1="722" y1="10.5714" x2="1188.89" y2="-117.986" gradientUnits="userSpaceOnUse">
<stop offset="0.015625" stop-color="#B40ACB"/>
<stop offset="1" stop-color="#FFCE21"/>
</linearGradient>
<linearGradient id="paint1_linear" x1="3.52852e-06" y1="10.5714" x2="460.723" y2="-114.345" gradientUnits="userSpaceOnUse">
<stop offset="0.015625" stop-color="#B40ACB"/>
<stop offset="1" stop-color="#FFCE21"/>
</linearGradient>
<linearGradient id="paint2_linear" x1="187" y1="15.4286" x2="876.869" y2="-136.547" gradientUnits="userSpaceOnUse">
<stop offset="0.015625" stop-color="#B40ACB"/>
<stop offset="1" stop-color="#FFCE21"/>
</linearGradient>
</defs>
</svg>
