<svg width="124" height="100" viewBox="0 0 124 100" fill="none" xmlns="http://www.w3.org/2000/svg">
<path opacity="0.1" d="M111.017 0H93.6419H87.4299H74.9912V12.1378H80.192H87.4299H111.017V19.0074H87.4299H83.7117H74.9912V31.1451V87.8623H67.9492V31.1451V21.679V19.0074V12.1378V0H55.5092H48.4673H36.0273H12.9189H12.4413H0V12.1378V19.0074V31.1451H12.4413H36.0273V87.8623V88.5026V100H48.4673V87.8623V31.1451V19.0074H36.0273H12.4413V12.1378H36.0273H48.4673H55.5092V19.0074V31.1451V87.8623V100H67.9492H74.9912H87.4299V88.5026V87.8623V31.1451H111.017H123.457V19.0074V12.1378V0H111.017Z" fill="url(#paint0_linear)"/>
<defs>
<linearGradient id="paint0_linear" x1="134.937" y1="-48.4607" x2="4.79072" y2="99.096" gradientUnits="userSpaceOnUse">
<stop stop-color="white"/>
</linearGradient>
</defs>
</svg>
