<svg width="122" height="79" viewBox="0 0 122 79" fill="none" xmlns="http://www.w3.org/2000/svg">
<path opacity="0.1" d="M109.707 0H92.5366H86.398H74.106V12.1378H79.2454H86.398H109.707V19.0074H86.398H82.7236H74.106V31.1451V87.8623H67.1472V31.1451V21.679V19.0074V12.1378V0H54.854H47.8952H35.602H12.7664H12.2944H0V12.1378V19.0074V31.1451H12.2944H35.602V87.8623V88.5026V100H47.8952V87.8623V31.1451V19.0074H35.602H12.2944V12.1378H35.602H47.8952H54.854V19.0074V31.1451V87.8623V100H67.1472H74.106H86.398V88.5026V87.8623V31.1451H109.707H122V19.0074V12.1378V0H109.707Z" fill="url(#paint0_linear)"/>
<defs>
<linearGradient id="paint0_linear" x1="133.344" y1="-48.4607" x2="3.01393" y2="97.5607" gradientUnits="userSpaceOnUse">
<stop stop-color="white"/>
</linearGradient>
</defs>
</svg>
