<svg width="54" height="60" viewBox="0 0 54 60" fill="none" xmlns="http://www.w3.org/2000/svg">
<path d="M52.3428 40.9954V18.6209C52.3417 17.64 52.0828 16.6766 51.5919 15.8273C51.101 14.9781 50.3954 14.2728 49.5459 13.7824L29.9682 2.59511C29.1179 2.10416 28.1533 1.8457 27.1714 1.8457C26.1895 1.8457 25.2249 2.10416 24.3746 2.59511L4.79682 13.7824C3.94732 14.2728 3.24173 14.9781 2.75084 15.8273C2.25994 16.6766 2.00101 17.64 2 18.6209V40.9954C2.00101 41.9764 2.25994 42.9398 2.75084 43.789C3.24173 44.6383 3.94732 45.3435 4.79682 45.8339L24.3746 57.0212C25.2249 57.5122 26.1895 57.7706 27.1714 57.7706C28.1533 57.7706 29.1179 57.5122 29.9682 57.0212L49.5459 45.8339C50.3954 45.3435 51.101 44.6383 51.5919 43.789C52.0828 42.9398 52.3417 41.9764 52.3428 40.9954Z" stroke="white" stroke-width="3" stroke-linecap="round" stroke-linejoin="round"/>
<path d="M2.75488 15.7124L27.1711 29.8363L51.5874 15.7124" stroke="white" stroke-width="3" stroke-linecap="round" stroke-linejoin="round"/>
<path d="M27.1709 58.0003V29.8083" stroke="white" stroke-width="3" stroke-linecap="round" stroke-linejoin="round"/>
</svg>
