<svg width="28" height="28" viewBox="0 0 28 28" fill="none" xmlns="http://www.w3.org/2000/svg">
<path d="M24.3996 10.1H12.6996C11.2637 10.1 10.0996 11.264 10.0996 12.7V24.4C10.0996 25.8359 11.2637 27 12.6996 27H24.3996C25.8355 27 26.9996 25.8359 26.9996 24.4V12.7C26.9996 11.264 25.8355 10.1 24.3996 10.1Z" stroke="white" stroke-width="2" stroke-linecap="round" stroke-linejoin="round"/>
<path d="M4.9 17.9H3.6C2.91044 17.9 2.24912 17.6261 1.76152 17.1385C1.27393 16.6509 1 15.9896 1 15.3V3.6C1 2.91044 1.27393 2.24912 1.76152 1.76152C2.24912 1.27393 2.91044 1 3.6 1H15.3C15.9896 1 16.6509 1.27393 17.1385 1.76152C17.6261 2.24912 17.9 2.91044 17.9 3.6V4.9" stroke="white" stroke-width="2" stroke-linecap="round" stroke-linejoin="round"/>
</svg>
