<svg width="8" height="15" viewBox="0 0 8 15" fill="none" xmlns="http://www.w3.org/2000/svg">
<path d="M7.69874 0.003121L5.77991 0C3.62416 0 2.23102 1.44892 2.23102 3.69152V5.39356H0.301719C0.135004 5.39356 0 5.53057 0 5.69957V8.16563C0 8.33463 0.135158 8.47149 0.301719 8.47149H2.23102V14.6941C2.23102 14.8631 2.36603 15 2.53274 15H5.04993C5.21665 15 5.35165 14.863 5.35165 14.6941V8.47149H7.60746C7.77417 8.47149 7.90918 8.33463 7.90918 8.16563L7.9101 5.69957C7.9101 5.61843 7.87824 5.54071 7.82174 5.48329C7.76525 5.42586 7.68828 5.39356 7.60823 5.39356H5.35165V3.95072C5.35165 3.25723 5.51467 2.90518 6.40582 2.90518L7.69844 2.90472C7.865 2.90472 8 2.7677 8 2.59886V0.308979C8 0.140289 7.86515 0.0034331 7.69874 0.003121Z" fill="white"/>
</svg>
