<svg width="24" height="24" viewBox="0 0 24 24" fill="none" xmlns="http://www.w3.org/2000/svg">
<path d="M20 6.00003H17.82C17.93 5.69003 18 5.35003 18 5.00003C18 3.34003 16.66 2.00003 15 2.00003C13.95 2.00003 13.04 2.54003 12.5 3.35003L12 4.02003L11.5 3.34003C10.96 2.54003 10.05 2.00003 9 2.00003C7.34 2.00003 6 3.34003 6 5.00003C6 5.35003 6.07 5.69003 6.18 6.00003H4C2.89 6.00003 2.01 6.89003 2.01 8.00003L2 19C2 20.11 2.89 21 4 21H20C21.11 21 22 20.11 22 19V8.00003C22 6.89003 21.11 6.00003 20 6.00003ZM15 4.00003C15.55 4.00003 16 4.45003 16 5.00003C16 5.55003 15.55 6.00003 15 6.00003C14.45 6.00003 14 5.55003 14 5.00003C14 4.45003 14.45 4.00003 15 4.00003ZM9 4.00003C9.55 4.00003 10 4.45003 10 5.00003C10 5.55003 9.55 6.00003 9 6.00003C8.45 6.00003 8 5.55003 8 5.00003C8 4.45003 8.45 4.00003 9 4.00003ZM20 19H4V17H20V19ZM20 14H4V8.00003H9.08L7 10.83L8.62 12L11 8.76003L12 7.40003L13 8.76003L15.38 12L17 10.83L14.92 8.00003H20V14Z" fill="#FDB207"/>
<path d="M20 6.00003H17.82C17.93 5.69003 18 5.35003 18 5.00003C18 3.34003 16.66 2.00003 15 2.00003C13.95 2.00003 13.04 2.54003 12.5 3.35003L12 4.02003L11.5 3.34003C10.96 2.54003 10.05 2.00003 9 2.00003C7.34 2.00003 6 3.34003 6 5.00003C6 5.35003 6.07 5.69003 6.18 6.00003H4C2.89 6.00003 2.01 6.89003 2.01 8.00003L2 19C2 20.11 2.89 21 4 21H20C21.11 21 22 20.11 22 19V8.00003C22 6.89003 21.11 6.00003 20 6.00003ZM15 4.00003C15.55 4.00003 16 4.45003 16 5.00003C16 5.55003 15.55 6.00003 15 6.00003C14.45 6.00003 14 5.55003 14 5.00003C14 4.45003 14.45 4.00003 15 4.00003ZM9 4.00003C9.55 4.00003 10 4.45003 10 5.00003C10 5.55003 9.55 6.00003 9 6.00003C8.45 6.00003 8 5.55003 8 5.00003C8 4.45003 8.45 4.00003 9 4.00003ZM20 19H4V17H20V19ZM20 14H4V8.00003H9.08L7 10.83L8.62 12L11 8.76003L12 7.40003L13 8.76003L15.38 12L17 10.83L14.92 8.00003H20V14Z" fill="url(#paint0_linear)"/>
<defs>
<linearGradient id="paint0_linear" x1="2" y1="12.8572" x2="15.9908" y2="12.7725" gradientUnits="userSpaceOnUse">
<stop offset="0.015625" stop-color="#E661F8"/>
<stop offset="1" stop-color="#FFCE21"/>
</linearGradient>
</defs>
</svg>
