<svg width="13" height="13" viewBox="0 0 13 13" fill="none" xmlns="http://www.w3.org/2000/svg">
<path d="M5.3457 5.8866C5.58061 5.57256 5.88031 5.31271 6.22448 5.12468C6.56864 4.93664 6.94922 4.82483 7.3404 4.79681C7.73157 4.7688 8.1242 4.82524 8.49165 4.96231C8.8591 5.09937 9.19277 5.31386 9.47003 5.59123L11.111 7.23221C11.6092 7.74803 11.8849 8.43889 11.8786 9.15599C11.8724 9.87309 11.5848 10.559 11.0777 11.0661C10.5706 11.5732 9.88465 11.8609 9.16755 11.8671C8.45045 11.8733 7.75959 11.5976 7.24377 11.0995L6.30294 10.1641" stroke="white" stroke-width="1.5" stroke-linecap="round" stroke-linejoin="round"/>
<path d="M7.53305 6.98048C7.29814 7.29452 6.99844 7.55437 6.65427 7.7424C6.31011 7.93044 5.92953 8.04225 5.53835 8.07027C5.14717 8.09828 4.75455 8.04184 4.3871 7.90477C4.01965 7.76771 3.68598 7.55321 3.40872 7.27585L1.76774 5.63487C1.26954 5.11905 0.993872 4.42819 1.0001 3.71109C1.00633 2.99399 1.29397 2.30803 1.80105 1.80095C2.30814 1.29386 2.9941 1.00623 3.7112 0.999996C4.4283 0.993764 5.11916 1.26943 5.63498 1.76763L6.57034 2.70299" stroke="white" stroke-width="1.5" stroke-linecap="round" stroke-linejoin="round"/>
</svg>
