<svg width="15" height="13" viewBox="0 0 15 13" fill="none" xmlns="http://www.w3.org/2000/svg">
<path d="M8.61133 7.05369C8.37355 7.37157 8.07019 7.6346 7.72181 7.82493C7.37344 8.01526 6.98821 8.12845 6.59225 8.15681C6.19629 8.18516 5.79886 8.12803 5.42692 7.98929C5.05499 7.85054 4.71723 7.63343 4.43658 7.35268L2.77554 5.69164C2.27126 5.16951 1.99222 4.47021 1.99853 3.74434C2.00483 3.01848 2.29598 2.32413 2.80927 1.81085C3.32255 1.29756 4.0169 1.00641 4.74276 1.0001C5.46863 0.993797 6.16793 1.27284 6.69006 1.77712L7.64239 2.72391" stroke="#A5CE12" stroke-width="2" stroke-linecap="round" stroke-linejoin="round"/>
<path d="M6.39686 5.94628C6.63464 5.62839 6.938 5.36537 7.28637 5.17504C7.63474 4.9847 8.01998 4.87152 8.41594 4.84316C8.8119 4.81481 9.20932 4.87194 9.58126 5.01068C9.9532 5.14942 10.291 5.36654 10.5716 5.64729L12.2326 7.30833C12.7369 7.83046 13.016 8.52976 13.0097 9.25563C13.0034 9.98149 12.7122 10.6758 12.1989 11.1891C11.6856 11.7024 10.9913 11.9936 10.2654 11.9999C9.53956 12.0062 8.84025 11.7271 8.31813 11.2228L7.37134 10.2761" stroke="#A5CE12" stroke-width="2" stroke-linecap="round" stroke-linejoin="round"/>
</svg>
