<svg width="59" height="60" viewBox="0 0 59 60" fill="none" xmlns="http://www.w3.org/2000/svg">
<path d="M15.9954 57.9815H7.59815C6.11343 57.9815 4.68951 57.3917 3.63966 56.3418C2.5898 55.2919 2 53.868 2 52.3833V32.7898C2 31.3051 2.5898 29.8812 3.63966 28.8313C4.68951 27.7815 6.11343 27.1917 7.59815 27.1917H15.9954M35.5889 21.5935V10.3972C35.5889 8.17014 34.7042 6.03427 33.1294 4.45949C31.5546 2.8847 29.4187 2 27.1917 2L15.9954 27.1917V57.9815H47.5689C48.919 57.9967 50.2291 57.5235 51.2578 56.6491C52.2866 55.7747 52.9646 54.5579 53.1671 53.223L57.0298 28.0314C57.1516 27.229 57.0974 26.4098 56.8712 25.6305C56.6449 24.8511 56.2519 24.1303 55.7194 23.5179C55.1869 22.9055 54.5276 22.4162 53.7872 22.084C53.0469 21.7517 52.2431 21.5843 51.4316 21.5935H35.5889Z" stroke="white" stroke-width="3" stroke-linecap="round" stroke-linejoin="round"/>
</svg>
