<svg width="19" height="21" viewBox="0 0 19 21" fill="none" xmlns="http://www.w3.org/2000/svg">
<path d="M13.75 7.98699L5.25 3.08533" stroke="white" stroke-width="1.5" stroke-linecap="round" stroke-linejoin="round"/>
<path d="M18 14.2203V6.66473C17.9997 6.33349 17.9122 6.00816 17.7465 5.72138C17.5807 5.43461 17.3424 5.19646 17.0556 5.03084L10.4444 1.25306C10.1573 1.08728 9.83157 1 9.5 1C9.16843 1 8.8427 1.08728 8.55556 1.25306L1.94444 5.03084C1.65758 5.19646 1.41931 5.43461 1.25355 5.72138C1.08778 6.00816 1.00034 6.33349 1 6.66473V14.2203C1.00034 14.5515 1.08778 14.8769 1.25355 15.1636C1.41931 15.4504 1.65758 15.6886 1.94444 15.8542L8.55556 19.632C8.8427 19.7977 9.16843 19.885 9.5 19.885C9.83157 19.885 10.1573 19.7977 10.4444 19.632L17.0556 15.8542C17.3424 15.6886 17.5807 15.4504 17.7465 15.1636C17.9122 14.8769 17.9997 14.5515 18 14.2203Z" stroke="white" stroke-width="1.5" stroke-linecap="round" stroke-linejoin="round"/>
<path d="M1.25586 5.68262L9.50086 10.4521L17.7459 5.68262" stroke="white" stroke-width="1.5" stroke-linecap="round" stroke-linejoin="round"/>
<path d="M9.5 19.9625V10.4425" stroke="white" stroke-width="1.5" stroke-linecap="round" stroke-linejoin="round"/>
</svg>
