<svg width="29" height="29" viewBox="0 0 29 29" fill="none" xmlns="http://www.w3.org/2000/svg">
<path d="M6.09 5.80003H8.99C9.1495 5.80003 9.28 5.93053 9.28 6.09003V22.91C9.28 23.0695 9.1495 23.2 8.99 23.2H6.09C5.9305 23.2 5.8 23.0695 5.8 22.91V6.09003C5.8 5.93053 5.9305 5.80003 6.09 5.80003ZM13.05 15.95H15.95C16.1095 15.95 16.24 16.0805 16.24 16.24V22.91C16.24 23.0695 16.1095 23.2 15.95 23.2H13.05C12.8905 23.2 12.76 23.0695 12.76 22.91V16.24C12.76 16.0805 12.8905 15.95 13.05 15.95ZM20.01 13.34H22.91C23.0695 13.34 23.2 13.4705 23.2 13.63V22.91C23.2 23.0695 23.0695 23.2 22.91 23.2H20.01C19.8505 23.2 19.72 23.0695 19.72 22.91V13.63C19.72 13.4705 19.8505 13.34 20.01 13.34ZM27.84 29H1.16C0.518375 29 0 28.4817 0 27.84V1.16003C0 0.518406 0.518375 3.05176e-05 1.16 3.05176e-05H27.84C28.4816 3.05176e-05 29 0.518406 29 1.16003V27.84C29 28.4817 28.4816 29 27.84 29ZM26.39 2.61003H2.61V26.39H26.39V2.61003Z" fill="#FDB207"/>
</svg>
