<svg width="32" height="32" viewBox="0 0 32 32" fill="none" xmlns="http://www.w3.org/2000/svg">
<path fill-rule="evenodd" clip-rule="evenodd" d="M3.63636 2.90912C3.2347 2.90912 2.90909 3.23473 2.90909 3.63639V28.3637C2.90909 28.7653 3.2347 29.0909 3.63636 29.0909H28.3636C28.7653 29.0909 29.0909 28.7653 29.0909 28.3637V3.63639C29.0909 3.23473 28.7653 2.90912 28.3636 2.90912H3.63636ZM0 3.63639C0 1.62809 1.62806 3.05176e-05 3.63636 3.05176e-05H28.3636C30.3719 3.05176e-05 32 1.62809 32 3.63639V28.3637C32 30.372 30.3719 32 28.3636 32H3.63636C1.62805 32 0 30.372 0 28.3637V3.63639ZM5.81818 7.27276C5.81818 6.46943 6.4694 5.81821 7.27273 5.81821H13.0909C13.8942 5.81821 14.5455 6.46943 14.5455 7.27276V13.0909C14.5455 13.8943 13.8942 14.5455 13.0909 14.5455H7.27273C6.4694 14.5455 5.81818 13.8943 5.81818 13.0909V7.27276ZM8.72727 8.7273V11.6364H11.6364V8.7273H8.72727ZM17.4545 7.27276C17.4545 6.46943 18.1058 5.81821 18.9091 5.81821H24.7273C25.5306 5.81821 26.1818 6.46943 26.1818 7.27276C26.1818 8.07608 25.5306 8.7273 24.7273 8.7273H18.9091C18.1058 8.7273 17.4545 8.07608 17.4545 7.27276ZM17.4545 13.0909C17.4545 12.2876 18.1058 11.6364 18.9091 11.6364H24.7273C25.5306 11.6364 26.1818 12.2876 26.1818 13.0909C26.1818 13.8943 25.5306 14.5455 24.7273 14.5455H18.9091C18.1058 14.5455 17.4545 13.8943 17.4545 13.0909ZM5.81818 18.9091C5.81818 18.1058 6.4694 17.4546 7.27273 17.4546H13.0909C13.8942 17.4546 14.5455 18.1058 14.5455 18.9091V24.7273C14.5455 25.5306 13.8942 26.1819 13.0909 26.1819H7.27273C6.4694 26.1819 5.81818 25.5306 5.81818 24.7273V18.9091ZM8.72727 20.3637V23.2728H11.6364V20.3637H8.72727ZM17.4545 18.9091C17.4545 18.1058 18.1058 17.4546 18.9091 17.4546H24.7273C25.5306 17.4546 26.1818 18.1058 26.1818 18.9091C26.1818 19.7124 25.5306 20.3637 24.7273 20.3637H18.9091C18.1058 20.3637 17.4545 19.7124 17.4545 18.9091ZM17.4545 24.7273C17.4545 23.924 18.1058 23.2728 18.9091 23.2728H24.7273C25.5306 23.2728 26.1818 23.924 26.1818 24.7273C26.1818 25.5306 25.5306 26.1819 24.7273 26.1819H18.9091C18.1058 26.1819 17.4545 25.5306 17.4545 24.7273Z" fill="#FDB207"/>
</svg>
