<svg width="31" height="30" viewBox="0 0 31 30" fill="none" xmlns="http://www.w3.org/2000/svg">
<path d="M3.70833 13.3334H27.0417V3.33336H3.70833V13.3334ZM30.375 1.6667V28.3334C30.375 28.7754 30.1994 29.1993 29.8868 29.5119C29.5743 29.8244 29.1504 30 28.7083 30H2.04167C1.59964 30 1.17572 29.8244 0.863155 29.5119C0.550595 29.1993 0.375 28.7754 0.375 28.3334V1.6667C0.375 1.22467 0.550595 0.800746 0.863155 0.488186C1.17572 0.175625 1.59964 3.05176e-05 2.04167 3.05176e-05H28.7083C29.1504 3.05176e-05 29.5743 0.175625 29.8868 0.488186C30.1994 0.800746 30.375 1.22467 30.375 1.6667ZM27.0417 16.6667H3.70833V26.6667H27.0417V16.6667ZM7.04167 20H12.0417V23.3334H7.04167V20ZM7.04167 6.6667H12.0417V10H7.04167V6.6667Z" fill="#FDB207"/>
</svg>
