<svg width="29" height="29" viewBox="0 0 29 29" fill="none" xmlns="http://www.w3.org/2000/svg">
<path fill-rule="evenodd" clip-rule="evenodd" d="M13.044 4.95666V20.3C13.044 21.1008 13.6932 21.75 14.494 21.75C15.2948 21.75 15.944 21.1008 15.944 20.3V4.94462L19.9997 9.00034C20.566 9.5666 21.484 9.5666 22.0503 9.00034C22.6166 8.43408 22.6166 7.51599 22.0503 6.94973L15.5253 0.424726C15.2414 0.140832 14.8691 -0.000732112 14.497 3.36289e-05C14.496 3.15547e-05 14.495 3.05176e-05 14.494 3.05176e-05C14.0535 3.05176e-05 13.6589 0.196447 13.3929 0.506474L6.9497 6.94973C6.38344 7.51599 6.38344 8.43408 6.9497 9.00034C7.51596 9.5666 8.43404 9.5666 9.00031 9.00034L13.044 4.95666ZM27.55 13.05C28.3508 13.05 29 13.6992 29 14.5V27.55C29 28.3508 28.3508 29 27.55 29H1.45C0.649187 29 0 28.3508 0 27.55V14.506C0 13.7052 0.649187 13.056 1.45 13.056C2.25081 13.056 2.9 13.7052 2.9 14.506V26.1H26.1V14.5C26.1 13.6992 26.7492 13.05 27.55 13.05Z" fill="#FDB207"/>
</svg>
