<svg width="16" height="13" viewBox="0 0 16 13" fill="none" xmlns="http://www.w3.org/2000/svg">
<path d="M15.1538 1.45761C14.5903 1.70481 13.9898 1.86866 13.3638 1.94822C14.0078 1.56369 14.4994 0.959428 14.7305 0.231096C14.13 0.589106 13.467 0.841986 12.7605 0.983106C12.1903 0.376005 11.3777 0 10.4912 0C8.77124 0 7.38655 1.39605 7.38655 3.10749C7.38655 3.35374 7.40739 3.59051 7.45853 3.81593C4.87575 3.68996 2.59036 2.45208 1.05509 0.566375C0.787053 1.03141 0.629832 1.56369 0.629832 2.13669C0.629832 3.21262 1.18389 4.16636 2.00978 4.71853C1.51065 4.70906 1.02099 4.56415 0.606154 4.33589C0.606154 4.34537 0.606154 4.35768 0.606154 4.36999C0.606154 5.87969 1.68302 7.13367 3.09517 7.42254C2.84229 7.49168 2.56668 7.52483 2.28065 7.52483C2.08176 7.52483 1.88097 7.51347 1.6925 7.47179C2.09502 8.7021 3.23724 9.60659 4.5954 9.63595C3.53842 10.4628 2.19636 10.961 0.743486 10.961C0.488712 10.961 0.244356 10.9496 0 10.9183C1.37616 11.8058 3.00709 12.3125 4.76588 12.3125C10.4827 12.3125 13.6082 7.57692 13.6082 3.47212C13.6082 3.33479 13.6034 3.2022 13.5968 3.07055C14.2134 2.63298 14.7314 2.0865 15.1538 1.45761Z" fill="white"/>
</svg>
