<svg width="19" height="11" viewBox="0 0 19 11" fill="none" xmlns="http://www.w3.org/2000/svg">
<path fill-rule="evenodd" clip-rule="evenodd" d="M16.3522 6.9943C16.9825 7.62381 17.6477 8.21609 18.2129 8.90908C18.4626 9.21704 18.6991 9.53483 18.8799 9.89221C19.1362 10.4003 18.9041 10.9593 18.4588 10.9897L15.6908 10.9884C14.9769 11.049 14.4074 10.755 13.9285 10.2556C13.5453 9.85626 13.1904 9.43124 12.8219 9.01842C12.6708 8.84969 12.5127 8.69092 12.3238 8.56543C11.9459 8.31451 11.6179 8.39133 11.402 8.79451C11.1821 9.20458 11.1322 9.65866 11.1106 10.1157C11.0809 10.7825 10.8839 10.9578 10.2292 10.9883C8.82999 11.0558 7.50206 10.8393 6.26846 10.1171C5.18087 9.48054 4.3375 8.58184 3.60343 7.56442C2.17418 5.58328 1.07967 3.40633 0.0959564 1.1684C-0.125469 0.66419 0.0364644 0.393532 0.580258 0.383953C1.48325 0.366007 2.38612 0.367284 3.29017 0.382676C3.65718 0.388168 3.90014 0.603518 4.04185 0.958221C4.53039 2.18716 5.12819 3.35639 5.87855 4.44017C6.07837 4.72871 6.28213 5.01725 6.57229 5.22034C6.89328 5.44521 7.13768 5.37068 7.28869 5.00486C7.38451 4.77291 7.42646 4.52307 7.44806 4.27464C7.5196 3.41994 7.52903 2.56671 7.40355 1.71501C7.32652 1.18347 7.03387 0.83937 6.51542 0.738783C6.25086 0.6875 6.29025 0.586786 6.41835 0.432298C6.64083 0.165856 6.85008 0 7.26722 0H10.3954C10.8879 0.0994369 10.9973 0.325772 11.0647 0.832728L11.0674 4.38761C11.062 4.58387 11.1632 5.16625 11.5088 5.29615C11.7853 5.38862 11.9676 5.16229 12.1335 4.98289C12.8825 4.16964 13.4171 3.20855 13.8946 2.21335C14.1066 1.77575 14.2888 1.32129 14.4654 0.867215C14.5962 0.530266 14.8015 0.364474 15.1725 0.371818L18.1833 0.374565C18.2726 0.374565 18.3629 0.375906 18.4494 0.391042C18.9567 0.479494 19.0957 0.702764 18.939 1.20959C18.6921 2.00477 18.2118 2.66742 17.7421 3.33315C17.24 4.04389 16.703 4.73031 16.2051 5.44527C15.7476 6.09816 15.7839 6.42725 16.3522 6.9943Z" fill="white"/>
</svg>
