<svg width="40" height="35" viewBox="0 0 40 35" fill="none" xmlns="http://www.w3.org/2000/svg">
<path d="M16.6256 2.72161L1.47928 28.0072C1.167 28.548 1.00176 29.1612 1.00001 29.7857C0.998265 30.4102 1.16006 31.0242 1.46931 31.5668C1.77856 32.1093 2.22448 32.5614 2.76271 32.8781C3.30094 33.1948 3.91271 33.3651 4.53716 33.3719H34.8299C35.4543 33.3651 36.0661 33.1948 36.6043 32.8781C37.1425 32.5614 37.5884 32.1093 37.8977 31.5668C38.2069 31.0242 38.3687 30.4102 38.367 29.7857C38.3653 29.1612 38.2 28.548 37.8877 28.0072L22.7414 2.72161C22.4226 2.19606 21.9737 1.76154 21.4381 1.45998C20.9025 1.15842 20.2982 1 19.6835 1C19.0688 1 18.4645 1.15842 17.9289 1.45998C17.3933 1.76154 16.9444 2.19606 16.6256 2.72161V2.72161Z" stroke="white" stroke-width="2" stroke-linecap="round" stroke-linejoin="round"/>
<path d="M20 11.9132V19.0661" stroke="white" stroke-width="2" stroke-linecap="round" stroke-linejoin="round"/>
<path d="M20 26.2191H20.0179" stroke="white" stroke-width="2" stroke-linecap="round" stroke-linejoin="round"/>
</svg>
