<svg width="29" height="29" fill="none" xmlns="http://www.w3.org/2000/svg"><path d="M6.09 5.8h2.9c.16 0 .29.13.29.29v16.82c0 .16-.13.29-.29.29h-2.9a.29.29 0 01-.29-.29V6.09c0-.16.13-.29.29-.29zm6.96 10.15h2.9c.16 0 .29.13.29.29v6.67c0 .16-.13.29-.29.29h-2.9a.29.29 0 01-.29-.29v-6.67c0-.16.13-.29.29-.29zm6.96-2.61h2.9c.16 0 .29.13.29.29v9.28c0 .16-.13.29-.29.29h-2.9a.29.29 0 01-.29-.29v-9.28c0-.16.13-.29.29-.29zM27.84 29H1.16C.518 29 0 28.482 0 27.84V1.16C0 .518.518 0 1.16 0h26.68C28.482 0 29 .518 29 1.16v26.68c0 .642-.518 1.16-1.16 1.16zM26.39 2.61H2.61v23.78h23.78V2.61z" fill="#FDB207"/></svg>