<svg width="32" height="32" fill="none" xmlns="http://www.w3.org/2000/svg"><path fill-rule="evenodd" clip-rule="evenodd" d="M3.636 2.91a.727.727 0 00-.727.726v24.728c0 .401.326.727.727.727h24.728a.727.727 0 00.727-.727V3.636a.727.727 0 00-.727-.727H3.636zM0 3.635A3.636 3.636 0 013.636 0h24.728A3.636 3.636 0 0132 3.636v24.728A3.636 3.636 0 0128.364 32H3.636A3.636 3.636 0 010 28.364V3.636zm5.818 3.637c0-.804.651-1.455 1.455-1.455h5.818c.803 0 1.455.651 1.455 1.455v5.818c0 .803-.652 1.455-1.455 1.455H7.273a1.455 1.455 0 01-1.455-1.455V7.273zm2.91 1.454v2.91h2.908v-2.91H8.727zm8.726-1.454c0-.804.652-1.455 1.455-1.455h5.818a1.455 1.455 0 010 2.91H18.91a1.455 1.455 0 01-1.454-1.455zm0 5.818c0-.803.652-1.455 1.455-1.455h5.818a1.454 1.454 0 110 2.91H18.91a1.455 1.455 0 01-1.454-1.455zM5.819 18.909c0-.803.651-1.454 1.455-1.454h5.818c.803 0 1.455.65 1.455 1.454v5.818c0 .804-.652 1.455-1.455 1.455H7.273a1.455 1.455 0 01-1.455-1.455V18.91zm2.91 1.455v2.909h2.908v-2.91h-2.91zm8.726-1.455c0-.803.652-1.454 1.455-1.454h5.818a1.454 1.454 0 110 2.909H18.91a1.455 1.455 0 01-1.454-1.455zm0 5.818c0-.803.652-1.454 1.455-1.454h5.818a1.454 1.454 0 110 2.909H18.91a1.455 1.455 0 01-1.454-1.455z" fill="#FDB207"/></svg>