<svg width="16" height="13" fill="none" xmlns="http://www.w3.org/2000/svg"><path d="M15.154 1.458a6.477 6.477 0 01-1.79.49A3.09 3.09 0 0014.73.231a6.21 6.21 0 01-1.97.752 3.106 3.106 0 00-5.374 2.124c0 .247.021.484.073.709A8.793 8.793 0 011.055.566a3.111 3.111 0 00.955 4.152 3.064 3.064 0 01-1.404-.382v.034a3.121 3.121 0 002.49 3.053 3.1 3.1 0 01-.815.102c-.2 0-.4-.012-.589-.053a3.136 3.136 0 002.903 2.164A6.242 6.242 0 01.743 10.96c-.254 0-.499-.011-.743-.043a8.746 8.746 0 004.766 1.395c5.717 0 8.842-4.736 8.842-8.84 0-.138-.005-.27-.011-.402a6.197 6.197 0 001.557-1.613z" fill="#fff"/></svg>