<svg width="19" height="11" fill="none" xmlns="http://www.w3.org/2000/svg"><path fill-rule="evenodd" clip-rule="evenodd" d="M16.352 6.994c.63.63 1.296 1.222 1.86 1.915.25.308.487.626.668.983.256.508.024 1.067-.421 1.098l-2.768-.002c-.714.061-1.284-.233-1.763-.732-.383-.4-.738-.825-1.106-1.238a2.642 2.642 0 00-.498-.453c-.378-.25-.706-.174-.922.23-.22.41-.27.864-.291 1.32-.03.668-.227.843-.882.873-1.399.068-2.727-.149-3.96-.87C5.18 9.48 4.337 8.581 3.602 7.563 2.174 5.584 1.08 3.406.096 1.168-.125.664.036.394.58.384A73.431 73.431 0 013.29.383c.367.005.61.22.752.575A17.235 17.235 0 005.879 4.44c.2.289.403.577.693.78.321.225.566.15.717-.215.096-.232.137-.482.16-.73.07-.855.08-1.708-.045-2.56-.077-.532-.37-.876-.889-.976C6.251.688 6.29.587 6.418.432 6.641.166 6.85 0 7.268 0h3.127c.493.1.602.326.67.833l.002 3.555c-.005.196.096.778.442.908.276.093.459-.134.624-.313.75-.813 1.284-1.774 1.762-2.77.212-.437.394-.892.57-1.346.131-.337.337-.503.707-.495l3.011.003c.09 0 .18 0 .266.016.508.088.647.312.49.819-.247.795-.727 1.457-1.197 2.123-.502.71-1.039 1.397-1.537 2.112-.457.653-.421.982.147 1.55z" fill="#fff"/></svg>