<svg width="1440" height="27" fill="none" xmlns="http://www.w3.org/2000/svg"><path d="M779.63 11.613c-3.917 0-5.443 5.088-2.173 7.243l3.074 2.025a1.536 1.536 0 01-1.691 2.565l-16.705-11.009a5 5 0 00-2.751-.824h-36.078a1.306 1.306 0 010-2.613h715.384c.73 0 1.31.585 1.31 1.306 0 .722-.58 1.307-1.31 1.307H779.63z" fill="#FDB207"/><path d="M779.63 11.613c-3.917 0-5.443 5.088-2.173 7.243l3.074 2.025a1.536 1.536 0 01-1.691 2.565l-16.705-11.009a5 5 0 00-2.751-.824h-36.078a1.306 1.306 0 010-2.613h715.384c.73 0 1.31.585 1.31 1.306 0 .722-.58 1.307-1.31 1.307H779.63z" fill="url(#paint0_linear)"/><path d="M655.279 23.403a1.509 1.509 0 01-1.725-2.477l2.937-2.048c3.204-2.234 1.623-7.265-2.283-7.265H1.306a1.306 1.306 0 110-2.613h704.388a1.306 1.306 0 010 2.613h-31.907a5 5 0 00-2.856.896l-15.652 10.894z" fill="#FDB207"/><path d="M655.279 23.403a1.509 1.509 0 01-1.725-2.477l2.937-2.048c3.204-2.234 1.623-7.265-2.283-7.265H1.306a1.306 1.306 0 110-2.613h704.388a1.306 1.306 0 010 2.613h-31.907a5 5 0 00-2.856.896l-15.652 10.894z" fill="url(#paint1_linear)"/><path d="M718.909 3.577a5 5 0 00-7.099 0L695.04 20.48a5.002 5.002 0 01-3.55 1.479H189.521a2.521 2.521 0 000 5.042h504.06a5 5 0 003.551-1.48l14.678-14.81a5 5 0 017.101-.003l14.699 14.815A5 5 0 00737.159 27h481.321a2.522 2.522 0 000-5.042H739.229a5.002 5.002 0 01-3.55-1.479l-16.77-16.902z" fill="#FDB207"/><path d="M718.909 3.577a5 5 0 00-7.099 0L695.04 20.48a5.002 5.002 0 01-3.55 1.479H189.521a2.521 2.521 0 000 5.042h504.06a5 5 0 003.551-1.48l14.678-14.81a5 5 0 017.101-.003l14.699 14.815A5 5 0 00737.159 27h481.321a2.522 2.522 0 000-5.042H739.229a5.002 5.002 0 01-3.55-1.479l-16.77-16.902z" fill="url(#paint2_linear)"/><defs><linearGradient id="paint0_linear" x1="722" y1="15.429" x2="1188.89" y2="143.986" gradientUnits="userSpaceOnUse"><stop offset=".016" stop-color="#B40ACB"/><stop offset="1" stop-color="#FFCE21"/></linearGradient><linearGradient id="paint1_linear" x1="0" y1="15.429" x2="460.723" y2="140.345" gradientUnits="userSpaceOnUse"><stop offset=".016" stop-color="#B40ACB"/><stop offset="1" stop-color="#FFCE21"/></linearGradient><linearGradient id="paint2_linear" x1="187" y1="11.571" x2="876.869" y2="163.547" gradientUnits="userSpaceOnUse"><stop offset=".016" stop-color="#B40ACB"/><stop offset="1" stop-color="#FFCE21"/></linearGradient></defs></svg>