<svg width="1440" height="27" fill="none" xmlns="http://www.w3.org/2000/svg"><path d="M779.63 14.387c-3.917 0-5.443-5.088-2.173-7.243l3.074-2.025a1.536 1.536 0 00-1.691-2.565l-16.705 11.008a5 5 0 01-2.751.825h-36.078a1.306 1.306 0 000 2.613h715.384c.73 0 1.31-.585 1.31-1.306 0-.722-.58-1.307-1.31-1.307H779.63z" fill="#FDB207"/><path d="M779.63 14.387c-3.917 0-5.443-5.088-2.173-7.243l3.074-2.025a1.536 1.536 0 00-1.691-2.565l-16.705 11.008a5 5 0 01-2.751.825h-36.078a1.306 1.306 0 000 2.613h715.384c.73 0 1.31-.585 1.31-1.306 0-.722-.58-1.307-1.31-1.307H779.63z" fill="url(#paint0_linear)"/><path d="M655.279 2.597a1.509 1.509 0 00-1.725 2.477l2.937 2.048c3.204 2.234 1.623 7.265-2.283 7.265H1.306a1.306 1.306 0 100 2.613h704.388a1.306 1.306 0 000-2.613h-31.907a5 5 0 01-2.856-.896L655.279 2.597z" fill="#FDB207"/><path d="M655.279 2.597a1.509 1.509 0 00-1.725 2.477l2.937 2.048c3.204 2.234 1.623 7.265-2.283 7.265H1.306a1.306 1.306 0 100 2.613h704.388a1.306 1.306 0 000-2.613h-31.907a5 5 0 01-2.856-.896L655.279 2.597z" fill="url(#paint1_linear)"/><path d="M718.909 23.423a5 5 0 01-7.099 0L695.04 6.52a5.002 5.002 0 00-3.55-1.479H189.521a2.521 2.521 0 010-5.042h504.06a5 5 0 013.551 1.48l14.678 14.81a5 5 0 007.101.003L733.61 1.478A5 5 0 01737.159 0h481.321a2.522 2.522 0 010 5.042H739.229a5.002 5.002 0 00-3.55 1.479l-16.77 16.902z" fill="#FDB207"/><path d="M718.909 23.423a5 5 0 01-7.099 0L695.04 6.52a5.002 5.002 0 00-3.55-1.479H189.521a2.521 2.521 0 010-5.042h504.06a5 5 0 013.551 1.48l14.678 14.81a5 5 0 007.101.003L733.61 1.478A5 5 0 01737.159 0h481.321a2.522 2.522 0 010 5.042H739.229a5.002 5.002 0 00-3.55 1.479l-16.77 16.902z" fill="url(#paint2_linear)"/><defs><linearGradient id="paint0_linear" x1="722" y1="10.571" x2="1188.89" y2="-117.986" gradientUnits="userSpaceOnUse"><stop offset=".016" stop-color="#B40ACB"/><stop offset="1" stop-color="#FFCE21"/></linearGradient><linearGradient id="paint1_linear" x1="0" y1="10.571" x2="460.723" y2="-114.345" gradientUnits="userSpaceOnUse"><stop offset=".016" stop-color="#B40ACB"/><stop offset="1" stop-color="#FFCE21"/></linearGradient><linearGradient id="paint2_linear" x1="187" y1="15.429" x2="876.869" y2="-136.547" gradientUnits="userSpaceOnUse"><stop offset=".016" stop-color="#B40ACB"/><stop offset="1" stop-color="#FFCE21"/></linearGradient></defs></svg>